[Header]
FileType HTR
DataType HTRS
FileVersion 1
NumSegments 64
NumFrames 4
DataFrameRate 24
EulerRotationOrder ZYX
CalibrationUnits mm
RotationUnits Degrees
GlobalAxisofGravity Y
BoneLengthAxis Y
ScaleFactor 1.0
[SegmentNames&Hierarchy]
Hips	GLOBAL
Spine	Hips
Spine1	Spine
Spine2	Spine1
Neck	Spine2
Head	Neck
LeftEye	Head
RightEye	Head
LeftShoulder	Spine2
LeftArm	LeftShoulder
LeftForeArm	LeftArm
LeftHand	LeftForeArm
LeftHandThumb1	LeftHand
LeftHandThumb2	LeftHandThumb1
LeftHandThumb3	LeftHandThumb2
LeftHandThumb4	LeftHandThumb3
LeftHandIndex1	LeftHand
LeftHandIndex2	LeftHandIndex1
LeftHandIndex3	LeftHandIndex2
LeftHandIndex4	LeftHandIndex3
LeftHandMiddle1	LeftHand
LeftHandMiddle2	LeftHandMiddle1
LeftHandMiddle3	LeftHandMiddle2
LeftHandMiddle4	LeftHandMiddle3
LeftHandRing1	LeftHand
LeftHandRing2	LeftHandRing1
LeftHandRing3	LeftHandRing2
LeftHandRing4	LeftHandRing3
LeftHandPinky1	LeftHand
LeftHandPinky2	LeftHandPinky1
LeftHandPinky3	LeftHandPinky2
LeftHandPinky4	LeftHandPinky3
RightShoulder	Spine2
RightArm	RightShoulder
RightForeArm	RightArm
RightHand	RightForeArm
RightHandPinky1	RightHand
RightHandPinky2	RightHandPinky1
RightHandPinky3	RightHandPinky2
RightHandPinky4	RightHandPinky3
RightHandRing1	RightHand
RightHandRing2	RightHandRing1
RightHandRing3	RightHandRing2
RightHandRing4	RightHandRing3
RightHandMiddle1	RightHand
RightHandMiddle2	RightHandMiddle1
RightHandMiddle3	RightHandMiddle2
RightHandMiddle4	RightHandMiddle3
RightHandIndex1	RightHand
RightHandIndex2	RightHandIndex1
RightHandIndex3	RightHandIndex2
RightHandIndex4	RightHandIndex3
RightHandThumb1	RightHand
RightHandThumb2	RightHandThumb1
RightHandThumb3	RightHandThumb2
RightHandThumb4	RightHandThumb3
LeftUpLeg	Hips
LeftLeg	LeftUpLeg
LeftFoot	LeftLeg
LeftToeBase	LeftFoot
RightUpLeg	Hips
RightLeg	RightUpLeg
RightFoot	RightLeg
RightToeBase	RightFoot
[BasePosition]
Hips	0	0	0	0	0	0	1
Spine	0	0	0	0	0	0	1
Spine1	0	0	0	0	0	0	1
Spine2	0	0	0	0	0	0	1
Neck	0	0	0	0	0	0	1
Head	0	0	0	0	0	0	1
LeftEye	0	0	0	0	0	0	1
RightEye	0	0	0	0	0	0	1
LeftShoulder	0	0	0	0	0	0	1
LeftArm	0	0	0	0	0	0	1
LeftForeArm	0	0	0	0	0	0	1
LeftHand	0	0	0	0	0	0	1
LeftHandThumb1	0	0	0	0	0	0	1
LeftHandThumb2	0	0	0	0	0	0	1
LeftHandThumb3	0	0	0	0	0	0	1
LeftHandThumb4	0	0	0	0	0	0	1
LeftHandIndex1	0	0	0	0	0	0	1
LeftHandIndex2	0	0	0	0	0	0	1
LeftHandIndex3	0	0	0	0	0	0	1
LeftHandIndex4	0	0	0	0	0	0	1
LeftHandMiddle1	0	0	0	0	0	0	1
LeftHandMiddle2	0	0	0	0	0	0	1
LeftHandMiddle3	0	0	0	0	0	0	1
LeftHandMiddle4	0	0	0	0	0	0	1
LeftHandRing1	0	0	0	0	0	0	1
LeftHandRing2	0	0	0	0	0	0	1
LeftHandRing3	0	0	0	0	0	0	1
LeftHandRing4	0	0	0	0	0	0	1
LeftHandPinky1	0	0	0	0	0	0	1
LeftHandPinky2	0	0	0	0	0	0	1
LeftHandPinky3	0	0	0	0	0	0	1
LeftHandPinky4	0	0	0	0	0	0	1
RightShoulder	0	0	0	0	0	0	1
RightArm	0	0	0	0	0	0	1
RightForeArm	0	0	0	0	0	0	1
RightHand	0	0	0	0	0	0	1
RightHandPinky1	0	0	0	0	0	0	1
RightHandPinky2	0	0	0	0	0	0	1
RightHandPinky3	0	0	0	0	0	0	1
RightHandPinky4	0	0	0	0	0	0	1
RightHandRing1	0	0	0	0	0	0	1
RightHandRing2	0	0	0	0	0	0	1
RightHandRing3	0	0	0	0	0	0	1
RightHandRing4	0	0	0	0	0	0	1
RightHandMiddle1	0	0	0	0	0	0	1
RightHandMiddle2	0	0	0	0	0	0	1
RightHandMiddle3	0	0	0	0	0	0	1
RightHandMiddle4	0	0	0	0	0	0	1
RightHandIndex1	0	0	0	0	0	0	1
RightHandIndex2	0	0	0	0	0	0	1
RightHandIndex3	0	0	0	0	0	0	1
RightHandIndex4	0	0	0	0	0	0	1
RightHandThumb1	0	0	0	0	0	0	1
RightHandThumb2	0	0	0	0	0	0	1
RightHandThumb3	0	0	0	0	0	0	1
RightHandThumb4	0	0	0	0	0	0	1
LeftUpLeg	0	0	0	0	0	0	1
LeftLeg	0	0	0	0	0	0	1
LeftFoot	0	0	0	0	0	0	1
LeftToeBase	0	0	0	0	0	0	1
RightUpLeg	0	0	0	0	0	0	1
RightLeg	0	0	0	0	0	0	1
RightFoot	0	0	0	0	0	0	1
RightToeBase	0	0	0	0	0	0	1
[Hips]
51	11.2926178	1016.997559	20.55648422	-1.029352427	1.41589582	-5.745771885	1.0
52	11.25222015	1017.033203	20.66707993	-1.017495513	1.413534164	-5.732746601	1.0
53	11.18176556	1017.080688	20.80596733	-1.007053137	1.42923665	-5.721489429	1.0
54	11.10566711	1017.123352	20.94996262	-0.9981121421	1.435108066	-5.70606184	1.0
[Spine]
51	0	101.8159943	1.315000057	0.6547805667	-1.400528669	2.963979244	1.0
52	0	101.8159943	1.315000057	0.6521938443	-1.391327739	2.961000919	1.0
53	0	101.8159943	1.315000057	0.6515253186	-1.384174824	2.95361352	1.0
54	0	101.8159943	1.315000057	0.6537426114	-1.378601789	2.950054407	1.0
[Spine1]
51	0	100.8349991	-10.00800037	-0.3324620128	0.07714372128	5.936720848	1.0
52	0	100.8349991	-10.00800037	-0.327287674	0.07806609571	5.936323166	1.0
53	0	100.8349991	-10.00800037	-0.3204231262	0.0793100968	5.93644619	1.0
54	0	100.8349991	-10.00800037	-0.3073119819	0.08073998243	5.93675518	1.0
[Spine2]
51	0	91	-13.73399925	-0.3035799563	0.703830719	5.837911606	1.0
52	0	91	-13.73399925	-0.298424691	0.7046917081	5.837568283	1.0
53	0	91	-13.73399925	-0.2915486991	0.7055392265	5.837778091	1.0
54	0	91	-13.73399925	-0.2783925831	0.7059838772	5.838249683	1.0
[Neck]
51	0	166.7169952	-25.16200066	1.166994929	-0.2495506853	-2.143065214	1.0
52	0	166.7169952	-25.16200066	1.152048349	-0.245035708	-2.142721653	1.0
53	0	166.7169952	-25.16200066	1.143947959	-0.2499981076	-2.135735273	1.0
54	0	166.7169952	-25.16200066	1.132423282	-0.2504384518	-2.139719248	1.0
[Head]
51	0	96.17900085	16.84999847	2.143861055	0.8237327337	-7.80756855	1.0
52	0	96.17900085	16.84999847	2.133735418	0.8487489223	-7.817672253	1.0
53	0	96.17900085	16.84999847	2.129807234	0.8354638219	-7.814291	1.0
54	0	96.17900085	16.84999847	2.1237607	0.8310117722	-7.818829536	1.0
[LeftEye]
51	30.6760006	64.09500122	92.83599854	0	0	0	1.0
52	30.6760006	64.09500122	92.83599854	0	0	0	1.0
53	30.6760006	64.09500122	92.83599854	0	0	0	1.0
54	30.6760006	64.09500122	92.83599854	0	0	0	1.0
[RightEye]
51	-30.6760006	64.09500122	92.83499908	0	0	0	1.0
52	-30.6760006	64.09500122	92.83499908	0	0	0	1.0
53	-30.6760006	64.09500122	92.83499908	0	0	0	1.0
54	-30.6760006	64.09500122	92.83499908	0	0	0	1.0
[LeftShoulder]
51	45.70400238	109.4599991	-26.28000069	4.555973053	-13.69294453	3.995378017	1.0
52	45.70400238	109.4599991	-26.28000069	4.55298233	-13.69602394	4.009125233	1.0
53	45.70400238	109.4599991	-26.28000069	4.548104763	-13.71181679	3.992570877	1.0
54	45.70400238	109.4599991	-26.28000069	4.55058527	-13.71444798	3.906319857	1.0
[LeftArm]
51	105.923996	-5.24600029	-22.32099915	-2.875086784	4.895354748	-93.93534851	1.0
52	105.923996	-5.24600029	-22.32099915	-2.858250856	4.89081955	-93.94358826	1.0
53	105.923996	-5.24600029	-22.32099915	-2.850676298	4.876253605	-93.92550659	1.0
54	105.923996	-5.24600029	-22.32099915	-2.851083279	4.875976563	-93.84150696	1.0
[LeftForeArm]
51	278.414978	-0.0009999999311	0	7.768974683e-06	-14.56867695	-0.000249523262	1.0
52	278.414978	-0.0009999999311	0	6.405188742e-06	-14.56333447	-0.000251801277	1.0
53	278.414978	-0.0009999999311	0	3.264114866e-06	-14.54089546	-0.0002180185256	1.0
54	278.414978	-0.0009999999311	0	3.105739097e-06	-14.53653431	-0.0002103492443	1.0
[LeftHand]
51	283.2879944	0	0	-27.83542442	-0.6792663932	-9.849434853	1.0
52	283.2879944	0	0	-27.78923225	-0.6711172462	-9.845110893	1.0
53	283.2879944	0	0	-27.74987793	-0.6919249892	-9.859374046	1.0
54	283.2879944	0	0	-27.73576736	-0.7236702442	-9.864897728	1.0
[LeftHandThumb1]
51	24.6609993	-15.75	26.8239994	17.21942711	-6.046972275	8.666656494	1.0
52	24.6609993	-15.75	26.8239994	17.22045326	-6.043952942	8.668765068	1.0
53	24.6609993	-15.75	26.8239994	17.22726631	-6.024636269	8.682269096	1.0
54	24.6609993	-15.75	26.8239994	17.24510193	-5.97440815	8.717455864	1.0
[LeftHandThumb2]
51	32.29800034	-18.64699936	18.64699936	-1.494925499	30.06682968	-3.438481331	1.0
52	32.29800034	-18.64699936	18.64699936	-1.493495345	30.07051277	-3.437622309	1.0
53	32.29800034	-18.64699936	18.64699936	-1.484402299	30.09418678	-3.432246923	1.0
54	32.29800034	-18.64699936	18.64699936	-1.460659981	30.15579033	-3.418216467	1.0
[LeftHandThumb3]
51	26.52600098	-15.31499958	15.31499958	1.365637898	6.614699841	-0.6754823327	1.0
52	26.52600098	-15.31499958	15.31499958	1.366601586	6.618394852	-0.6746153831	1.0
53	26.52600098	-15.31499958	15.31499958	1.372766972	6.642087936	-0.6690222025	1.0
54	26.52600098	-15.31499958	15.31499958	1.38887012	6.703760147	-0.6544474363	1.0
[LeftHandThumb4]
51	19.54599953	-11.28499985	11.28499985	0	0	0	1.0
52	19.54599953	-11.28499985	11.28499985	0	0	0	1.0
53	19.54599953	-11.28499985	11.28499985	0	0	0	1.0
54	19.54599953	-11.28499985	11.28499985	0	0	0	1.0
[LeftHandIndex1]
51	91.09299469	-5.170999527	22.60099792	-0.3812359869	4.762441158	-8.81634903	1.0
52	91.09299469	-5.170999527	22.60099792	-0.3813577294	4.762574673	-8.817786217	1.0
53	91.09299469	-5.170999527	22.60099792	-0.3816151023	4.762874126	-8.820933342	1.0
54	91.09299469	-5.170999527	22.60099792	-0.382321775	4.763672352	-8.829440117	1.0
[LeftHandIndex2]
51	36.76399994	0	0	-0.675855875	2.856790781	-21.54306984	1.0
52	36.76399994	0	0	-0.6759272814	2.856917381	-21.54450417	1.0
53	36.76399994	0	0	-0.6760773659	2.857187033	-21.54761314	1.0
54	36.76399994	0	0	-0.676502347	2.857939959	-21.5561142	1.0
[LeftHandIndex3]
51	28.83100128	0	0	-0.1277432144	0.9012125134	-11.1386776	1.0
52	28.83100128	0	0	-0.1277719587	0.9013521671	-11.14011288	1.0
53	28.83100128	0	0	-0.1278324127	0.9016650319	-11.14323521	1.0
54	28.83100128	0	0	-0.1279969215	0.9025021791	-11.15171814	1.0
[LeftHandIndex4]
51	23.92700005	0	0	0	0	0	1.0
52	23.92700005	0	0	0	0	0	1.0
53	23.92700005	0	0	0	0	0	1.0
54	23.92700005	0	0	0	0	0	1.0
[LeftHandMiddle1]
51	95.33399963	0	0	-1.640418768	8.747603416	-16.86167145	1.0
52	95.33399963	0	0	-1.640598536	8.747704506	-16.86312485	1.0
53	95.33399963	0	0	-1.64097333	8.747924805	-16.86624718	1.0
54	95.33399963	0	0	-1.642017722	8.748527527	-16.87483597	1.0
[LeftHandMiddle2]
51	36.98199844	0	0	-1.494284749	3.895150423	-34.39135361	1.0
52	36.98199844	0	0	-1.494385362	3.895256996	-34.39279938	1.0
53	36.98199844	0	0	-1.49460721	3.895488024	-34.39596176	1.0
54	36.98199844	0	0	-1.495202422	3.896109819	-34.40448761	1.0
[LeftHandMiddle3]
51	29.50900078	0	0	-0.1721119136	1.579202533	-13.23323631	1.0
52	29.50900078	0	0	-0.1721465886	1.579342484	-13.23467445	1.0
53	29.50900078	0	0	-0.1722273082	1.579636693	-13.23777008	1.0
54	29.50900078	0	0	-0.1724366397	1.580454469	-13.24625492	1.0
[LeftHandMiddle4]
51	28.3390007	0	0	0	0	0	1.0
52	28.3390007	0	0	0	0	0	1.0
53	28.3390007	0	0	0	0	0	1.0
54	28.3390007	0	0	0	0	0	1.0
[LeftHandRing1]
51	91.04499817	-0.4390000105	-18.65100098	-2.642627001	11.36291981	-24.06971169	1.0
52	91.04499817	-0.4390000105	-18.65100098	-2.643138409	11.36313534	-24.07364845	1.0
53	91.04499817	-0.4390000105	-18.65100098	-2.646427393	11.36464596	-24.09895325	1.0
54	91.04499817	-0.4390000105	-18.65100098	-2.654999495	11.368536	-24.16479111	1.0
[LeftHandRing2]
51	31.54000092	0	0	-1.028753638	3.828580856	-37.34217834	1.0
52	31.54000092	0	0	-1.028974771	3.828896046	-37.34607315	1.0
53	31.54000092	0	0	-1.030403256	3.830919743	-37.37110901	1.0
54	31.54000092	0	0	-1.034135222	3.836176634	-37.43628311	1.0
[LeftHandRing3]
51	29.37700081	0	0	-0.03212110326	1.627289295	-16.49886894	1.0
52	29.37700081	0	0	-0.03219376877	1.627666473	-16.50274086	1.0
53	29.37700081	0	0	-0.03266527131	1.630096197	-16.5275898	1.0
54	29.37700081	0	0	-0.03389887139	1.636415362	-16.59226608	1.0
[LeftHandRing4]
51	26.47500038	0	0	0	0	0	1.0
52	26.47500038	0	0	0	0	0	1.0
53	26.47500038	0	0	0	0	0	1.0
54	26.47500038	0	0	0	0	0	1.0
[LeftHandPinky1]
51	80.77799988	-4.887000084	-38.06099701	-4.398378372	16.07681274	-33.93575668	1.0
52	80.77799988	-4.887000084	-38.06099701	-4.399493217	16.0768528	-33.93980026	1.0
53	80.77799988	-4.887000084	-38.06099701	-4.406653881	16.07721329	-33.96576309	1.0
54	80.77799988	-4.887000084	-38.06099701	-4.425307751	16.07810783	-34.03334427	1.0
[LeftHandPinky2]
51	36	0	0	-1.73628068	3.625183821	-42.81303024	1.0
52	36	0	0	-1.736560941	3.62545228	-42.8169136	1.0
53	36	0	0	-1.738352299	3.627180099	-42.84185791	1.0
54	36	0	0	-1.743025541	3.631666422	-42.9067955	1.0
[LeftHandPinky3]
51	21.14200211	0	0	-0.4274802506	2.573807716	-17.68537712	1.0
52	21.14200211	0	0	-0.4276287258	2.574166059	-17.68925476	1.0
53	21.14200211	0	0	-0.4285804331	2.576463699	-17.71411705	1.0
54	21.14200211	0	0	-0.4310910702	2.582444191	-17.77886391	1.0
[LeftHandPinky4]
51	19.75699997	0	0	0	0	0	1.0
52	19.75699997	0	0	0	0	0	1.0
53	19.75699997	0	0	0	0	0	1.0
54	19.75699997	0	0	0	0	0	1.0
[RightShoulder]
51	-45.70000076	109.4620056	-26.28000069	6.325178146	2.89156723	-3.512276649	1.0
52	-45.70000076	109.4620056	-26.28000069	6.323796272	2.894191265	-3.527607918	1.0
53	-45.70000076	109.4620056	-26.28000069	6.319766521	2.891636133	-3.485456944	1.0
54	-45.70000076	109.4620056	-26.28000069	6.30530405	2.897605896	-3.41783452	1.0
[RightArm]
51	-105.9280014	-5.248000145	-22.32099915	0.9121944308	1.166268945	76.85270691	1.0
52	-105.9280014	-5.248000145	-22.32099915	0.9300991297	1.166133761	76.8662262	1.0
53	-105.9280014	-5.248000145	-22.32099915	0.9435102344	1.15776813	76.82381439	1.0
54	-105.9280014	-5.248000145	-22.32099915	0.9692448378	1.168250084	76.74565887	1.0
[RightForeArm]
51	-278.414978	0	0	-5.296388736e-06	17.62258339	-3.311908586e-05	1.0
52	-278.414978	0	0	-7.645484402e-06	17.611866	-5.005488856e-05	1.0
53	-278.414978	0	0	-3.111523256e-06	17.62290001	-1.047623209e-05	1.0
54	-278.414978	0	0	-2.455102049e-06	17.62541008	-5.53433938e-06	1.0
[RightHand]
51	-283.2879944	0	0.0009999999311	-12.65898514	-6.744771004	12.03945923	1.0
52	-283.2879944	0	0.0009999999311	-12.61028576	-6.750603676	12.03275299	1.0
53	-283.2879944	0	0.0009999999311	-12.60996342	-6.744394779	12.03940296	1.0
54	-283.2879944	0	0.0009999999311	-12.57375526	-6.736607075	12.02510643	1.0
[RightHandPinky1]
51	-80.76699829	-4.885000229	-38.06000137	-4.398300171	-16.07796288	33.9360466	1.0
52	-80.76699829	-4.885000229	-38.06000137	-4.399414063	-16.07800102	33.94009018	1.0
53	-80.76699829	-4.885000229	-38.06000137	-4.406578064	-16.07835197	33.96606445	1.0
54	-80.76699829	-4.885000229	-38.06000137	-4.425233841	-16.07924461	34.03365707	1.0
[RightHandPinky2]
51	-36	0	0.0009999999311	-1.734989762	-3.623473644	42.81298828	1.0
52	-36	0	0.0009999999311	-1.735268354	-3.623743534	42.81687927	1.0
53	-36	0	0.0009999999311	-1.737057328	-3.625468969	42.84183502	1.0
54	-36	0	0.0009999999311	-1.74172771	-3.629955053	42.90676498	1.0
[RightHandPinky3]
51	-21.14200211	0	0	-0.6424840689	0.3113671541	19.28788185	1.0
52	-21.14200211	0	0	-0.6426435113	0.3110126853	19.29175377	1.0
53	-21.14200211	0	0	-0.6436678767	0.3087407649	19.31657791	1.0
54	-21.14200211	0	0	-0.6463420987	0.3028343916	19.38119888	1.0
[RightHandPinky4]
51	-19.75699997	0	0	0	0	0	1.0
52	-19.75699997	0	0	0	0	0	1.0
53	-19.75699997	0	0	0	0	0	1.0
54	-19.75699997	0	0	0	0	0	1.0
[RightHandRing1]
51	-91.03599548	-0.4390000105	-18.65100098	-2.642569065	-11.36259556	24.06985664	1.0
52	-91.03599548	-0.4390000105	-18.65100098	-2.643081427	-11.36281204	24.07380676	1.0
53	-91.03599548	-0.4390000105	-18.65100098	-2.64636898	-11.36431503	24.09908295	1.0
54	-91.03599548	-0.4390000105	-18.65100098	-2.654940367	-11.36820412	24.1649189	1.0
[RightHandRing2]
51	-31.54000092	0	0	-1.028589845	-3.828095198	37.34222412	1.0
52	-31.54000092	0	0	-1.028813004	-3.828409672	37.34612274	1.0
53	-31.54000092	0	0	-1.030241728	-3.830435991	37.37115479	1.0
54	-31.54000092	0	0	-1.033972502	-3.835691214	37.43632126	1.0
[RightHandRing3]
51	-29.37700081	0	0	-0.08558950573	0.3676088154	14.97829151	1.0
52	-29.37700081	0	0	-0.08565100282	0.3672280908	14.98216534	1.0
53	-29.37700081	0	0	-0.08605145663	0.3647902608	15.00698471	1.0
54	-29.37700081	0	0	-0.08711561561	0.3584411442	15.07161808	1.0
[RightHandRing4]
51	-26.47500038	0	0	0	0	0	1.0
52	-26.47500038	0	0	0	0	0	1.0
53	-26.47500038	0	0	0	0	0	1.0
54	-26.47500038	0	0	0	0	0	1.0
[RightHandMiddle1]
51	-95.32500458	0	0	-1.6403898	-8.747369766	16.86178207	1.0
52	-95.32500458	0	0	-1.640568495	-8.747471809	16.86325073	1.0
53	-95.32500458	0	0	-1.640946031	-8.747690201	16.86634827	1.0
54	-95.32500458	0	0	-1.641991258	-8.748292923	16.87493896	1.0
[RightHandMiddle2]
51	-36.98199844	0	0	-1.49414587	-3.894695759	34.39141083	1.0
52	-36.98199844	0	0	-1.494246125	-3.894800186	34.39284515	1.0
53	-36.98199844	0	0	-1.494463801	-3.895030499	34.39598083	1.0
54	-36.98199844	0	0	-1.495060086	-3.895654202	34.40451431	1.0
[RightHandMiddle3]
51	-29.50900078	0	0	-0.2824331522	-1.770138741	16.86805916	1.0
52	-29.50900078	0	0	-0.2824762762	-1.770274282	16.86948967	1.0
53	-29.50900078	0	0	-0.2825732231	-1.770568371	16.87259483	1.0
54	-29.50900078	0	0	-0.2828344405	-1.771370888	16.88108063	1.0
[RightHandMiddle4]
51	-28.3390007	0	0.0009999999311	0	0	0	1.0
52	-28.3390007	0	0.0009999999311	0	0	0	1.0
53	-28.3390007	0	0.0009999999311	0	0	0	1.0
54	-28.3390007	0	0.0009999999311	0	0	0	1.0
[RightHandIndex1]
51	-91.08300018	-5.167999744	22.60099792	-0.3812217712	-4.762318134	8.816382408	1.0
52	-91.08300018	-5.167999744	22.60099792	-0.3813418746	-4.762453079	8.817828178	1.0
53	-91.08300018	-5.167999744	22.60099792	-0.381601423	-4.762747765	8.820951462	1.0
54	-91.08300018	-5.167999744	22.60099792	-0.3823094368	-4.763546944	8.829473495	1.0
[RightHandIndex2]
51	-36.76399994	0	0	-0.6758002043	-2.856491566	21.54309654	1.0
52	-36.76399994	0	0	-0.6758717299	-2.856618643	21.54453659	1.0
53	-36.76399994	0	0	-0.6760274768	-2.856896162	21.54768753	1.0
54	-36.76399994	0	0	-0.6764514446	-2.857648849	21.55618477	1.0
[RightHandIndex3]
51	-28.83100128	0	0	-0.2625964284	-0.2517754734	14.81253529	1.0
52	-28.83100128	0	0	-0.2626335919	-0.2519149184	14.81397152	1.0
53	-28.83100128	0	0	-0.2627126575	-0.252215445	14.81705189	1.0
54	-28.83100128	0	0	-0.2629311681	-0.2530400157	14.82553196	1.0
[RightHandIndex4]
51	-23.92700005	0	0	0	0	0	1.0
52	-23.92700005	0	0	0	0	0	1.0
53	-23.92700005	0	0	0	0	0	1.0
54	-23.92700005	0	0	0	0	0	1.0
[RightHandThumb1]
51	-24.64799881	-15.72700024	26.82600021	17.21909714	6.047204018	-8.666945457	1.0
52	-24.64799881	-15.72700024	26.82600021	17.22012711	6.044181824	-8.669047356	1.0
53	-24.64799881	-15.72700024	26.82600021	17.22692871	6.024866104	-8.682559967	1.0
54	-24.64799881	-15.72700024	26.82600021	17.24476242	5.974636078	-8.71774292	1.0
[RightHandThumb2]
51	-32.29800034	-18.64699936	18.64699936	-1.495591283	-30.06546783	3.440153837	1.0
52	-32.29800034	-18.64699936	18.64699936	-1.49415648	-30.06914902	3.439285278	1.0
53	-32.29800034	-18.64699936	18.64699936	-1.485045195	-30.09283829	3.433929443	1.0
54	-32.29800034	-18.64699936	18.64699936	-1.461304188	-30.15444374	3.419897318	1.0
[RightHandThumb3]
51	-26.52600098	-15.31399918	15.31399918	1.183764219	-5.751169205	1.470836282	1.0
52	-26.52600098	-15.31399918	15.31399918	1.184675813	-5.754876137	1.469985127	1.0
53	-26.52600098	-15.31399918	15.31399918	1.190494537	-5.778654575	1.464537382	1.0
54	-26.52600098	-15.31399918	15.31399918	1.205705404	-5.840538979	1.450304985	1.0
[RightHandThumb4]
51	-19.54599953	-11.28499985	11.28499985	0	0	0	1.0
52	-19.54599953	-11.28499985	11.28499985	0	0	0	1.0
53	-19.54599953	-11.28499985	11.28499985	0	0	0	1.0
54	-19.54599953	-11.28499985	11.28499985	0	0	0	1.0
[LeftUpLeg]
51	82.07800293	-67.51699829	-15.99599934	-17.48225021	15.2238512	12.13399887	1.0
52	82.07800293	-67.51699829	-15.99599934	-17.4728756	15.22420502	12.12452698	1.0
53	82.07800293	-67.51699829	-15.99599934	-17.46260452	15.22319794	12.11783791	1.0
54	82.07800293	-67.51699829	-15.99599934	-17.44871902	15.21605396	12.10643959	1.0
[LeftLeg]
51	0	-443.7049866	2.845999956	25.67492485	7.638985634	6.228155613	1.0
52	0	-443.7049866	2.845999956	25.65011406	7.643856525	6.220443249	1.0
53	0	-443.7049866	2.845999956	25.61834908	7.649731159	6.211205482	1.0
54	0	-443.7049866	2.845999956	25.58825111	7.653892994	6.20600605	1.0
[LeftFoot]
51	0	-444.2789917	-29.8219986	-4.639843464	2.639675856	-11.10932446	1.0
52	0	-444.2789917	-29.8219986	-4.632218838	2.641525269	-11.11077976	1.0
53	0	-444.2789917	-29.8219986	-4.617771626	2.623809814	-11.10708141	1.0
54	0	-444.2789917	-29.8219986	-4.605504513	2.626578093	-11.10734367	1.0
[LeftToeBase]
51	0	-87.28699493	107.1060028	-0.4672848284	-2.563404678e-06	3.71647252e-06	1.0
52	0	-87.28699493	107.1060028	-0.4647634923	-3.864840437e-06	5.095107099e-06	1.0
53	0	-87.28699493	107.1060028	-0.4670186043	-1.028682732e-06	-3.059533128e-06	1.0
54	0	-87.28699493	107.1060028	-0.4655982852	-7.232149102e-08	-3.749845064e-06	1.0
[RightUpLeg]
51	-82.07800293	-67.51699829	-15.99599934	-1.391033769	-4.595777988	10.91017818	1.0
52	-82.07800293	-67.51699829	-15.99599934	-1.380962014	-4.597973347	10.89883041	1.0
53	-82.07800293	-67.51699829	-15.99599934	-1.358778358	-4.600414753	10.89400482	1.0
54	-82.07800293	-67.51699829	-15.99599934	-1.339537024	-4.601915836	10.88341427	1.0
[RightLeg]
51	0	-443.7049866	2.861999989	10.93266106	-5.443548679	2.221864939	1.0
52	0	-443.7049866	2.861999989	10.90278625	-5.438000679	2.226068735	1.0
53	0	-443.7049866	2.861999989	10.8505249	-5.444966793	2.226233244	1.0
54	0	-443.7049866	2.861999989	10.81112385	-5.436202526	2.229045153	1.0
[RightFoot]
51	0	-444.2770081	-29.83799934	-9.697183609	-0.2996122241	-7.64267683	1.0
52	0	-444.2770081	-29.83799934	-9.68868351	-0.2992489338	-7.645479202	1.0
53	0	-444.2770081	-29.83799934	-9.672582626	-0.2987723053	-7.64789629	1.0
54	0	-444.2770081	-29.83799934	-9.661520004	-0.2987717688	-7.651819706	1.0
[RightToeBase]
51	0	-87.28699493	107.1060028	-0.6631119847	2.259233725e-06	2.358347047e-06	1.0
52	0	-87.28699493	107.1060028	-0.6593593955	5.003383649e-06	3.12955035e-06	1.0
53	0	-87.28699493	107.1060028	-0.6407430172	4.713085218e-06	-2.387601853e-06	1.0
54	0	-87.28699493	107.1060028	-0.6386798024	3.249226893e-06	-2.547901659e-06	1.0
[EndOfFile]
